<svg width="1280" height="720" xmlns="http://www.w3.org/2000/svg" xmlns:xlink="http://www.w3.org/1999/xlink" overflow="hidden"><defs><filter id="fx0" x="-10%" y="-10%" width="120%" height="120%" filterUnits="userSpaceOnUse" primitiveUnits="userSpaceOnUse"><feComponentTransfer color-interpolation-filters="sRGB"><feFuncR type="discrete" tableValues="1 1"/><feFuncG type="discrete" tableValues="1 1"/><feFuncB type="discrete" tableValues="1 1"/><feFuncA type="linear" slope="0.54902" intercept="0"/></feComponentTransfer><feGaussianBlur stdDeviation="3.55556 3.55556"/></filter><filter id="fx1" x="-10%" y="-10%" width="120%" height="120%" filterUnits="userSpaceOnUse" primitiveUnits="userSpaceOnUse"><feComponentTransfer color-interpolation-filters="sRGB"><feFuncR type="discrete" tableValues="0 0"/><feFuncG type="discrete" tableValues="0 0"/><feFuncB type="discrete" tableValues="0 0"/><feFuncA type="linear" slope="0.34902" intercept="0"/></feComponentTransfer><feGaussianBlur stdDeviation="4.44781 4.45028"/></filter><filter id="fx2" x="-10%" y="-10%" width="120%" height="120%" filterUnits="userSpaceOnUse" primitiveUnits="userSpaceOnUse"><feComponentTransfer color-interpolation-filters="sRGB"><feFuncR type="discrete" tableValues="1 1"/><feFuncG type="discrete" tableValues="1 1"/><feFuncB type="discrete" tableValues="1 1"/><feFuncA type="linear" slope="1" intercept="0"/></feComponentTransfer><feGaussianBlur stdDeviation="3.55556 3.55556"/></filter><filter id="fx3" x="-10%" y="-10%" width="120%" height="120%" filterUnits="userSpaceOnUse" primitiveUnits="userSpaceOnUse"><feComponentTransfer color-interpolation-filters="sRGB"><feFuncR type="discrete" tableValues="0 0"/><feFuncG type="discrete" tableValues="0 0"/><feFuncB type="discrete" tableValues="0 0"/><feFuncA type="linear" slope="0.4" intercept="0"/></feComponentTransfer><feGaussianBlur stdDeviation="6.66667 6.66667"/></filter><filter id="fx4" x="-10%" y="-10%" width="120%" height="120%" filterUnits="userSpaceOnUse" primitiveUnits="userSpaceOnUse"><feComponentTransfer color-interpolation-filters="sRGB"><feFuncR type="discrete" tableValues="1 1"/><feFuncG type="discrete" tableValues="1 1"/><feFuncB type="discrete" tableValues="1 1"/><feFuncA type="linear" slope="1" intercept="0"/></feComponentTransfer><feGaussianBlur stdDeviation="3.55556 3.55556"/></filter><filter id="fx5" x="-10%" y="-10%" width="120%" height="120%" filterUnits="userSpaceOnUse" primitiveUnits="userSpaceOnUse"><feComponentTransfer color-interpolation-filters="sRGB"><feFuncR type="discrete" tableValues="0 0"/><feFuncG type="discrete" tableValues="0 0"/><feFuncB type="discrete" tableValues="0 0"/><feFuncA type="linear" slope="0.4" intercept="0"/></feComponentTransfer><feGaussianBlur stdDeviation="6.66667 6.66667"/></filter><filter id="fx6" x="-10%" y="-10%" width="120%" height="120%" filterUnits="userSpaceOnUse" primitiveUnits="userSpaceOnUse"><feComponentTransfer color-interpolation-filters="sRGB"><feFuncR type="discrete" tableValues="1 1"/><feFuncG type="discrete" tableValues="1 1"/><feFuncB type="discrete" tableValues="1 1"/><feFuncA type="linear" slope="1" intercept="0"/></feComponentTransfer><feGaussianBlur stdDeviation="3.55556 3.55556"/></filter><filter id="fx7" x="-10%" y="-10%" width="120%" height="120%" filterUnits="userSpaceOnUse" primitiveUnits="userSpaceOnUse"><feComponentTransfer color-interpolation-filters="sRGB"><feFuncR type="discrete" tableValues="0 0"/><feFuncG type="discrete" tableValues="0 0"/><feFuncB type="discrete" tableValues="0 0"/><feFuncA type="linear" slope="0.4" intercept="0"/></feComponentTransfer><feGaussianBlur stdDeviation="6.66667 6.66667"/></filter><filter id="fx8" x="-10%" y="-10%" width="120%" height="120%" filterUnits="userSpaceOnUse" primitiveUnits="userSpaceOnUse"><feComponentTransfer color-interpolation-filters="sRGB"><feFuncR type="discrete" tableValues="1 1"/><feFuncG type="discrete" tableValues="1 1"/><feFuncB type="discrete" tableValues="1 1"/><feFuncA type="linear" slope="1" intercept="0"/></feComponentTransfer><feGaussianBlur stdDeviation="3.55556 3.55556"/></filter><filter id="fx9" x="-10%" y="-10%" width="120%" height="120%" filterUnits="userSpaceOnUse" primitiveUnits="userSpaceOnUse"><feComponentTransfer color-interpolation-filters="sRGB"><feFuncR type="discrete" tableValues="0 0"/><feFuncG type="discrete" tableValues="0 0"/><feFuncB type="discrete" tableValues="0 0"/><feFuncA type="linear" slope="0.4" intercept="0"/></feComponentTransfer><feGaussianBlur stdDeviation="6.66667 6.66667"/></filter><filter id="fx10" x="-10%" y="-10%" width="120%" height="120%" filterUnits="userSpaceOnUse" primitiveUnits="userSpaceOnUse"><feComponentTransfer color-interpolation-filters="sRGB"><feFuncR type="discrete" tableValues="1 1"/><feFuncG type="discrete" tableValues="1 1"/><feFuncB type="discrete" tableValues="1 1"/><feFuncA type="linear" slope="1" intercept="0"/></feComponentTransfer><feGaussianBlur stdDeviation="3.55556 3.55556"/></filter><filter id="fx11" x="-10%" y="-10%" width="120%" height="120%" filterUnits="userSpaceOnUse" primitiveUnits="userSpaceOnUse"><feComponentTransfer color-interpolation-filters="sRGB"><feFuncR type="discrete" tableValues="0 0"/><feFuncG type="discrete" tableValues="0 0"/><feFuncB type="discrete" tableValues="0 0"/><feFuncA type="linear" slope="0.4" intercept="0"/></feComponentTransfer><feGaussianBlur stdDeviation="6.66667 6.66667"/></filter><filter id="fx12" x="-10%" y="-10%" width="120%" height="120%" filterUnits="userSpaceOnUse" primitiveUnits="userSpaceOnUse"><feComponentTransfer color-interpolation-filters="sRGB"><feFuncR type="discrete" tableValues="1 1"/><feFuncG type="discrete" tableValues="1 1"/><feFuncB type="discrete" tableValues="1 1"/><feFuncA type="linear" slope="1" intercept="0"/></feComponentTransfer><feGaussianBlur stdDeviation="3.55556 3.55556"/></filter><filter id="fx13" x="-10%" y="-10%" width="120%" height="120%" filterUnits="userSpaceOnUse" primitiveUnits="userSpaceOnUse"><feComponentTransfer color-interpolation-filters="sRGB"><feFuncR type="discrete" tableValues="0 0"/><feFuncG type="discrete" tableValues="0 0"/><feFuncB type="discrete" tableValues="0 0"/><feFuncA type="linear" slope="0.4" intercept="0"/></feComponentTransfer><feGaussianBlur stdDeviation="6.66667 6.66667"/></filter><filter id="fx14" x="-10%" y="-10%" width="120%" height="120%" filterUnits="userSpaceOnUse" primitiveUnits="userSpaceOnUse"><feComponentTransfer color-interpolation-filters="sRGB"><feFuncR type="discrete" tableValues="1 1"/><feFuncG type="discrete" tableValues="1 1"/><feFuncB type="discrete" tableValues="1 1"/><feFuncA type="linear" slope="1" intercept="0"/></feComponentTransfer><feGaussianBlur stdDeviation="3.55556 3.55556"/></filter><filter id="fx15" x="-10%" y="-10%" width="120%" height="120%" filterUnits="userSpaceOnUse" primitiveUnits="userSpaceOnUse"><feComponentTransfer color-interpolation-filters="sRGB"><feFuncR type="discrete" tableValues="0 0"/><feFuncG type="discrete" tableValues="0 0"/><feFuncB type="discrete" tableValues="0 0"/><feFuncA type="linear" slope="0.4" intercept="0"/></feComponentTransfer><feGaussianBlur stdDeviation="6.66667 6.66667"/></filter><filter id="fx16" x="-10%" y="-10%" width="120%" height="120%" filterUnits="userSpaceOnUse" primitiveUnits="userSpaceOnUse"><feComponentTransfer color-interpolation-filters="sRGB"><feFuncR type="discrete" tableValues="1 1"/><feFuncG type="discrete" tableValues="1 1"/><feFuncB type="discrete" tableValues="1 1"/><feFuncA type="linear" slope="1" intercept="0"/></feComponentTransfer><feGaussianBlur stdDeviation="3.55556 3.55556"/></filter><filter id="fx17" x="-10%" y="-10%" width="120%" height="120%" filterUnits="userSpaceOnUse" primitiveUnits="userSpaceOnUse"><feComponentTransfer color-interpolation-filters="sRGB"><feFuncR type="discrete" tableValues="0 0"/><feFuncG type="discrete" tableValues="0 0"/><feFuncB type="discrete" tableValues="0 0"/><feFuncA type="linear" slope="0.4" intercept="0"/></feComponentTransfer><feGaussianBlur stdDeviation="6.66667 6.66667"/></filter><filter id="fx18" x="-10%" y="-10%" width="120%" height="120%" filterUnits="userSpaceOnUse" primitiveUnits="userSpaceOnUse"><feComponentTransfer color-interpolation-filters="sRGB"><feFuncR type="discrete" tableValues="1 1"/><feFuncG type="discrete" tableValues="1 1"/><feFuncB type="discrete" tableValues="1 1"/><feFuncA type="linear" slope="1" intercept="0"/></feComponentTransfer><feGaussianBlur stdDeviation="3.55556 3.55556"/></filter><filter id="fx19" x="-10%" y="-10%" width="120%" height="120%" filterUnits="userSpaceOnUse" primitiveUnits="userSpaceOnUse"><feComponentTransfer color-interpolation-filters="sRGB"><feFuncR type="discrete" tableValues="0 0"/><feFuncG type="discrete" tableValues="0 0"/><feFuncB type="discrete" tableValues="0 0"/><feFuncA type="linear" slope="0.4" intercept="0"/></feComponentTransfer><feGaussianBlur stdDeviation="6.66667 6.66667"/></filter><filter id="fx20" x="-10%" y="-10%" width="120%" height="120%" filterUnits="userSpaceOnUse" primitiveUnits="userSpaceOnUse"><feComponentTransfer color-interpolation-filters="sRGB"><feFuncR type="discrete" tableValues="1 1"/><feFuncG type="discrete" tableValues="1 1"/><feFuncB type="discrete" tableValues="1 1"/><feFuncA type="linear" slope="1" intercept="0"/></feComponentTransfer><feGaussianBlur stdDeviation="3.55556 3.55556"/></filter><filter id="fx21" x="-10%" y="-10%" width="120%" height="120%" filterUnits="userSpaceOnUse" primitiveUnits="userSpaceOnUse"><feComponentTransfer color-interpolation-filters="sRGB"><feFuncR type="discrete" tableValues="0 0"/><feFuncG type="discrete" tableValues="0 0"/><feFuncB type="discrete" tableValues="0 0"/><feFuncA type="linear" slope="0.4" intercept="0"/></feComponentTransfer><feGaussianBlur stdDeviation="6.66667 6.66667"/></filter><filter id="fx22" x="-10%" y="-10%" width="120%" height="120%" filterUnits="userSpaceOnUse" primitiveUnits="userSpaceOnUse"><feComponentTransfer color-interpolation-filters="sRGB"><feFuncR type="discrete" tableValues="1 1"/><feFuncG type="discrete" tableValues="1 1"/><feFuncB type="discrete" tableValues="1 1"/><feFuncA type="linear" slope="1" intercept="0"/></feComponentTransfer><feGaussianBlur stdDeviation="3.55556 3.55556"/></filter><filter id="fx23" x="-10%" y="-10%" width="120%" height="120%" filterUnits="userSpaceOnUse" primitiveUnits="userSpaceOnUse"><feComponentTransfer color-interpolation-filters="sRGB"><feFuncR type="discrete" tableValues="0 0"/><feFuncG type="discrete" tableValues="0 0"/><feFuncB type="discrete" tableValues="0 0"/><feFuncA type="linear" slope="0.4" intercept="0"/></feComponentTransfer><feGaussianBlur stdDeviation="6.66667 6.66667"/></filter><filter id="fx24" x="-10%" y="-10%" width="120%" height="120%" filterUnits="userSpaceOnUse" primitiveUnits="userSpaceOnUse"><feComponentTransfer color-interpolation-filters="sRGB"><feFuncR type="discrete" tableValues="1 1"/><feFuncG type="discrete" tableValues="1 1"/><feFuncB type="discrete" tableValues="1 1"/><feFuncA type="linear" slope="1" intercept="0"/></feComponentTransfer><feGaussianBlur stdDeviation="3.55556 3.55556"/></filter><filter id="fx25" x="-10%" y="-10%" width="120%" height="120%" filterUnits="userSpaceOnUse" primitiveUnits="userSpaceOnUse"><feComponentTransfer color-interpolation-filters="sRGB"><feFuncR type="discrete" tableValues="0 0"/><feFuncG type="discrete" tableValues="0 0"/><feFuncB type="discrete" tableValues="0 0"/><feFuncA type="linear" slope="0.4" intercept="0"/></feComponentTransfer><feGaussianBlur stdDeviation="6.66667 6.66667"/></filter><filter id="fx26" x="-10%" y="-10%" width="120%" height="120%" filterUnits="userSpaceOnUse" primitiveUnits="userSpaceOnUse"><feComponentTransfer color-interpolation-filters="sRGB"><feFuncR type="discrete" tableValues="1 1"/><feFuncG type="discrete" tableValues="1 1"/><feFuncB type="discrete" tableValues="1 1"/><feFuncA type="linear" slope="1" intercept="0"/></feComponentTransfer><feGaussianBlur stdDeviation="3.55556 3.55556"/></filter><filter id="fx27" x="-10%" y="-10%" width="120%" height="120%" filterUnits="userSpaceOnUse" primitiveUnits="userSpaceOnUse"><feComponentTransfer color-interpolation-filters="sRGB"><feFuncR type="discrete" tableValues="0 0"/><feFuncG type="discrete" tableValues="0 0"/><feFuncB type="discrete" tableValues="0 0"/><feFuncA type="linear" slope="0.4" intercept="0"/></feComponentTransfer><feGaussianBlur stdDeviation="6.66667 6.66667"/></filter><filter id="fx28" x="-10%" y="-10%" width="120%" height="120%" filterUnits="userSpaceOnUse" primitiveUnits="userSpaceOnUse"><feComponentTransfer color-interpolation-filters="sRGB"><feFuncR type="discrete" tableValues="1 1"/><feFuncG type="discrete" tableValues="1 1"/><feFuncB type="discrete" tableValues="1 1"/><feFuncA type="linear" slope="1" intercept="0"/></feComponentTransfer><feGaussianBlur stdDeviation="3.55556 3.55556"/></filter><filter id="fx29" x="-10%" y="-10%" width="120%" height="120%" filterUnits="userSpaceOnUse" primitiveUnits="userSpaceOnUse"><feComponentTransfer color-interpolation-filters="sRGB"><feFuncR type="discrete" tableValues="0 0"/><feFuncG type="discrete" tableValues="0 0"/><feFuncB type="discrete" tableValues="0 0"/><feFuncA type="linear" slope="0.4" intercept="0"/></feComponentTransfer><feGaussianBlur stdDeviation="6.66667 6.66667"/></filter><filter id="fx30" x="-10%" y="-10%" width="120%" height="120%" filterUnits="userSpaceOnUse" primitiveUnits="userSpaceOnUse"><feComponentTransfer color-interpolation-filters="sRGB"><feFuncR type="discrete" tableValues="1 1"/><feFuncG type="discrete" tableValues="1 1"/><feFuncB type="discrete" tableValues="1 1"/><feFuncA type="linear" slope="1" intercept="0"/></feComponentTransfer><feGaussianBlur stdDeviation="3.55556 3.55556"/></filter><filter id="fx31" x="-10%" y="-10%" width="120%" height="120%" filterUnits="userSpaceOnUse" primitiveUnits="userSpaceOnUse"><feComponentTransfer color-interpolation-filters="sRGB"><feFuncR type="discrete" tableValues="0 0"/><feFuncG type="discrete" tableValues="0 0"/><feFuncB type="discrete" tableValues="0 0"/><feFuncA type="linear" slope="0.4" intercept="0"/></feComponentTransfer><feGaussianBlur stdDeviation="6.66667 6.66667"/></filter><filter id="fx32" x="-10%" y="-10%" width="120%" height="120%" filterUnits="userSpaceOnUse" primitiveUnits="userSpaceOnUse"><feComponentTransfer color-interpolation-filters="sRGB"><feFuncR type="discrete" tableValues="1 1"/><feFuncG type="discrete" tableValues="1 1"/><feFuncB type="discrete" tableValues="1 1"/><feFuncA type="linear" slope="1" intercept="0"/></feComponentTransfer><feGaussianBlur stdDeviation="3.55556 3.55556"/></filter><filter id="fx33" x="-10%" y="-10%" width="120%" height="120%" filterUnits="userSpaceOnUse" primitiveUnits="userSpaceOnUse"><feComponentTransfer color-interpolation-filters="sRGB"><feFuncR type="discrete" tableValues="0 0"/><feFuncG type="discrete" tableValues="0 0"/><feFuncB type="discrete" tableValues="0 0"/><feFuncA type="linear" slope="0.4" intercept="0"/></feComponentTransfer><feGaussianBlur stdDeviation="6.66667 6.66667"/></filter><clipPath id="clip34"><rect x="0" y="0" width="1280" height="720"/></clipPath><clipPath id="clip35"><rect x="-15" y="-15" width="1314" height="754"/></clipPath><clipPath id="clip36"><rect x="0" y="0" width="1296" height="736"/></clipPath><clipPath id="clip37"><rect x="0" y="0" width="661" height="381"/></clipPath><radialGradient cx="0" cy="0" r="6205521" fy="-1.22972e-11" gradientUnits="userSpaceOnUse" spreadMethod="pad" id="fill38" gradientTransform="matrix(0.000104987 0 0 0.000104987 21 16)"><stop offset="0" stop-color="#FFFFFF"/><stop offset="0.32" stop-color="#FFFFFF"/><stop offset="0.92" stop-color="#F2F2F2"/><stop offset="1" stop-color="#F2F2F2"/></radialGradient><radialGradient cx="0" cy="0" r="1243441" fy="-9.17074e-12" gradientUnits="userSpaceOnUse" spreadMethod="pad" id="fill39" gradientTransform="matrix(0.000104987 0 0 0.000104987 682 16)"><stop offset="0" stop-color="#FFFFFF"/><stop offset="0.32" stop-color="#FFFFFF"/><stop offset="0.92" stop-color="#F2F2F2"/><stop offset="1" stop-color="#F2F2F2"/></radialGradient><radialGradient cx="0.0625" cy="0.0625" r="1323290" fx="0" fy="0" gradientUnits="userSpaceOnUse" spreadMethod="pad" id="fill40" gradientTransform="matrix(0.000104987 0 0 0.000104987 814 16)"><stop offset="0" stop-color="#FFFFFF"/><stop offset="0.32" stop-color="#FFFFFF"/><stop offset="0.92" stop-color="#F2F2F2"/><stop offset="1" stop-color="#F2F2F2"/></radialGradient><radialGradient cx="-0.0625" cy="-0.0625" r="1508924" fx="0" fy="0" gradientUnits="userSpaceOnUse" spreadMethod="pad" id="fill41" gradientTransform="matrix(0.000104987 0 0 0.000104987 22 88)"><stop offset="0" stop-color="#FFFFFF"/><stop offset="0.32" stop-color="#FFFFFF"/><stop offset="0.92" stop-color="#F2F2F2"/><stop offset="1" stop-color="#F2F2F2"/></radialGradient><radialGradient cx="-0.0625" cy="-0.0625" r="1508924" fx="0" fy="0" gradientUnits="userSpaceOnUse" spreadMethod="pad" id="fill42" gradientTransform="matrix(0.000104987 0 0 0.000104987 150 88)"><stop offset="0" stop-color="#FFFFFF"/><stop offset="0.32" stop-color="#FFFFFF"/><stop offset="0.92" stop-color="#F2F2F2"/><stop offset="1" stop-color="#F2F2F2"/></radialGradient><radialGradient cx="0.0625" cy="0.0625" r="1571740" fx="0" fy="0" gradientUnits="userSpaceOnUse" spreadMethod="pad" id="fill43" gradientTransform="matrix(0.000104987 0 0 0.000104987 279 88)"><stop offset="0" stop-color="#FFFFFF"/><stop offset="0.32" stop-color="#FFFFFF"/><stop offset="0.92" stop-color="#F2F2F2"/><stop offset="1" stop-color="#F2F2F2"/></radialGradient><radialGradient cx="0" cy="0" r="1515792" fy="-6.9728e-11" gradientUnits="userSpaceOnUse" spreadMethod="pad" id="fill44" gradientTransform="matrix(0.000104987 0 0 0.000104987 419 88)"><stop offset="0" stop-color="#FFFFFF"/><stop offset="0.32" stop-color="#FFFFFF"/><stop offset="0.92" stop-color="#F2F2F2"/><stop offset="1" stop-color="#F2F2F2"/></radialGradient><radialGradient cx="0.25" cy="0.25" r="4342084" fx="0" fy="0" gradientUnits="userSpaceOnUse" spreadMethod="pad" id="fill45" gradientTransform="matrix(0.000104987 0 0 0.000104987 551 88)"><stop offset="0" stop-color="#FFFFFF"/><stop offset="0.32" stop-color="#FFFFFF"/><stop offset="0.92" stop-color="#F2F2F2"/><stop offset="1" stop-color="#F2F2F2"/></radialGradient><radialGradient cx="0.25" cy="0.25" r="5620121" fx="0" fy="0" gradientUnits="userSpaceOnUse" spreadMethod="pad" id="fill46" gradientTransform="matrix(0.000104987 0 0 0.000104987 23 214)"><stop offset="0" stop-color="#FFFFFF"/><stop offset="0.41" stop-color="#FFFFFF"/><stop offset="0.92" stop-color="#F2F2F2"/><stop offset="1" stop-color="#F2F2F2"/></radialGradient><radialGradient cx="0.125" cy="0.125" r="4054675" fx="0" fy="0" gradientUnits="userSpaceOnUse" spreadMethod="pad" id="fill47" gradientTransform="matrix(0.000104987 0 0 0.000104987 958 16)"><stop offset="0" stop-color="#FFFFFF"/><stop offset="0.41" stop-color="#FFFFFF"/><stop offset="0.92" stop-color="#F2F2F2"/><stop offset="1" stop-color="#F2F2F2"/></radialGradient><radialGradient cx="0" cy="0" r="4457700" fy="-3.27418e-11" gradientUnits="userSpaceOnUse" spreadMethod="pad" id="fill48" gradientTransform="matrix(0.000104987 0 0 0.000104987 550 328)"><stop offset="0" stop-color="#FFFFFF"/><stop offset="0.41" stop-color="#FFFFFF"/><stop offset="0.92" stop-color="#F2F2F2"/><stop offset="1" stop-color="#F2F2F2"/></radialGradient><radialGradient cx="0.125" cy="0.125" r="2472045" fx="0" fy="0" gradientUnits="userSpaceOnUse" spreadMethod="pad" id="fill49" gradientTransform="matrix(0.000104987 0 0 0.000104987 22 516)"><stop offset="0" stop-color="#FFFFFF"/><stop offset="0.41" stop-color="#FFFFFF"/><stop offset="0.92" stop-color="#F2F2F2"/><stop offset="1" stop-color="#F2F2F2"/></radialGradient><radialGradient cx="0" cy="0" r="2832306" gradientUnits="userSpaceOnUse" spreadMethod="pad" id="fill50" gradientTransform="matrix(0.000104987 0 0 0.000104987 221 516)"><stop offset="0" stop-color="#FFFFFF"/><stop offset="0.41" stop-color="#FFFFFF"/><stop offset="0.92" stop-color="#F2F2F2"/><stop offset="1" stop-color="#F2F2F2"/></radialGradient><radialGradient cx="-0.125" cy="-0.125" r="2478697" fx="0" fy="0" gradientUnits="userSpaceOnUse" spreadMethod="pad" id="fill51" gradientTransform="matrix(0.000104987 0 0 0.000104987 471 516)"><stop offset="0" stop-color="#FFFFFF"/><stop offset="0.41" stop-color="#FFFFFF"/><stop offset="0.92" stop-color="#F2F2F2"/><stop offset="1" stop-color="#F2F2F2"/></radialGradient><radialGradient cx="0" cy="0" r="3445273" fy="-2.36469e-11" gradientUnits="userSpaceOnUse" spreadMethod="pad" id="fill52" gradientTransform="matrix(0.000104987 0 0 0.000104987 670 519)"><stop offset="0" stop-color="#FFFFFF"/><stop offset="0.41" stop-color="#FFFFFF"/><stop offset="0.92" stop-color="#F2F2F2"/><stop offset="1" stop-color="#F2F2F2"/></radialGradient><radialGradient cx="-0.25" cy="-0.25" r="4303719" fx="0" fy="0" gradientUnits="userSpaceOnUse" spreadMethod="pad" id="fill53" gradientTransform="matrix(0.000104987 0 0 0.000104987 1002 328)"><stop offset="0" stop-color="#FFFFFF"/><stop offset="0.41" stop-color="#FFFFFF"/><stop offset="0.92" stop-color="#F2F2F2"/><stop offset="1" stop-color="#F2F2F2"/></radialGradient></defs><g clip-path="url(#clip34)"><rect x="0" y="0" width="1280" height="720" fill="#FFFFFF"/><g clip-path="url(#clip35)" filter="url(#fx0)" transform="translate(-11 -11)"><g clip-path="url(#clip36)"><path d="M-19.6529 30.5862C-19.6529 9.02549-2.17452-8.45294 19.3862-8.45294L1243.85-8.45294C1265.41-8.45294 1282.89 9.02549 1282.89 30.5862L1282.89 683.848C1282.89 705.409 1265.41 722.887 1243.85 722.887L19.3862 722.887C-2.17452 722.887-19.6529 705.409-19.6529 683.848Z" stroke="#000000" stroke-miterlimit="8" fill="#404040" fill-rule="evenodd" fill-opacity="0.670588"/></g></g><path d="M1.50005 39.7738C1.50005 18.6358 18.6358 1.50005 39.7737 1.50005L1240.23 1.50005C1261.36 1.50005 1278.5 18.6358 1278.5 39.7738L1278.5 680.226C1278.5 701.364 1261.36 718.5 1240.23 718.5L39.7737 718.5C18.6358 718.5 1.50005 701.364 1.50005 680.226Z" stroke="#000000" stroke-width="1.33333" stroke-miterlimit="8" fill="#404040" fill-rule="evenodd" fill-opacity="0.670588"/><g filter="url(#fx1)" transform="matrix(1.99849 0 0 1.99738 -14 -14)"><g clip-path="url(#clip37)"><path d="M14.0817 33.3316C14.0817 22.7045 22.6919 14.0896 33.3131 14.0896L635.335 14.0896C645.956 14.0896 654.566 22.7045 654.566 33.3316L654.566 355.321C654.566 365.948 645.956 374.563 635.335 374.563L33.3131 374.563C22.6919 374.563 14.0817 365.948 14.0817 355.321Z" fill="#F2F2F2" fill-rule="evenodd"/></g></g><path d="M0 38.4336C-1.01851e-14 17.2073 17.2073-1.01851e-14 38.4336-1.01851e-14L1241.57 0C1262.79-1.01851e-14 1280 17.2073 1280 38.4336L1280 681.566C1280 702.793 1262.79 720 1241.57 720L38.4336 720C17.2073 720-5.09253e-15 702.793-5.09253e-15 681.566Z" fill="#F2F2F2" fill-rule="evenodd"/><g filter="url(#fx2)" transform="translate(-10 -3)"><g><path d="M12.3631 19.0232C12.3631 15.2677 15.4076 12.2231 19.1632 12.2231L667.543 12.2231C671.299 12.2231 674.343 15.2677 674.343 19.0232L674.343 62.543C674.343 66.2986 671.299 69.3431 667.543 69.3431L19.1632 69.3431C15.4076 69.3431 12.3631 66.2986 12.3631 62.543Z" fill="#BFBFBF" fill-rule="evenodd"/></g></g><path d="M21 22.6668C21 18.9848 23.9848 16 27.6667 16L663.333 16C667.015 16 670 18.9848 670 22.6668L670 65.3332C670 69.0152 667.015 72 663.333 72L27.6667 72C23.9848 72 21 69.0152 21 65.3332Z" fill="#BFBFBF" fill-rule="evenodd"/><g filter="url(#fx3)" transform="translate(7 2)"><g><path d="M20.5997 27.3857C20.5997 23.6379 23.6378 20.5997 27.3856 20.5997L662.814 20.5997C666.561 20.5997 669.6 23.6379 669.6 27.3857L669.6 70.8137C669.6 74.5615 666.561 77.5997 662.814 77.5997L27.3856 77.5997C23.6378 77.5997 20.5997 74.5615 20.5997 70.8137Z" fill="#FF0000" fill-rule="evenodd"/></g></g><path d="M21 22.786C21 19.0382 24.0382 16 27.786 16L663.214 16C666.962 16 670 19.0382 670 22.786L670 66.214C670 69.9618 666.962 73 663.214 73L27.786 73C24.0382 73 21 69.9618 21 66.214Z" fill="url(#fill38)" fill-rule="evenodd"/><g filter="url(#fx4)" transform="translate(662 -3)"><g><path d="M11.9232 18.3133C11.9232 15.0271 14.5871 12.3631 17.8733 12.3631L129.393 12.3631C132.679 12.3631 135.343 15.0271 135.343 18.3133L135.343 56.393C135.343 59.6792 132.679 62.3431 129.393 62.3431L17.8733 62.3431C14.5871 62.3431 11.9232 59.6792 11.9232 56.393Z" fill="#BFBFBF" fill-rule="evenodd"/></g></g><path d="M682 21.8335C682 18.6118 684.612 16 687.833 16L797.167 16C800.388 16 803 18.6118 803 21.8335L803 59.1665C803 62.3882 800.388 65 797.167 65L687.833 65C684.612 65 682 62.3882 682 59.1665Z" fill="#BFBFBF" fill-rule="evenodd"/><g filter="url(#fx5)" transform="translate(668 2)"><g><path d="M20.5997 26.4332C20.5997 23.2114 23.2114 20.5997 26.4332 20.5997L135.766 20.5997C138.988 20.5997 141.6 23.2114 141.6 26.4332L141.6 63.7661C141.6 66.9879 138.988 69.5997 135.766 69.5997L26.4332 69.5997C23.2114 69.5997 20.5997 66.9879 20.5997 63.7661Z" fill="#FF0000" fill-rule="evenodd"/></g></g><path d="M682 21.8335C682 18.6118 684.612 16 687.833 16L797.167 16C800.388 16 803 18.6118 803 21.8335L803 59.1665C803 62.3882 800.388 65 797.167 65L687.833 65C684.612 65 682 62.3882 682 59.1665Z" fill="url(#fill39)" fill-rule="evenodd"/><g filter="url(#fx6)" transform="translate(794 -3)"><g><path d="M11.7432 18.3133C11.7432 15.0271 14.4072 12.3631 17.6933 12.3631L138.393 12.3631C141.679 12.3631 144.343 15.0271 144.343 18.3133L144.343 56.393C144.343 59.6792 141.679 62.3431 138.393 62.3431L17.6933 62.3431C14.4072 62.3431 11.7432 59.6792 11.7432 56.393Z" fill="#BFBFBF" fill-rule="evenodd"/></g></g><path d="M814 21.8335C814 18.6118 816.612 16 819.833 16L938.167 16C941.388 16 944 18.6118 944 21.8335L944 59.1665C944 62.3882 941.388 65 938.167 65L819.833 65C816.612 65 814 62.3882 814 59.1665Z" fill="#BFBFBF" fill-rule="evenodd"/><g filter="url(#fx7)" transform="translate(800 2)"><g><path d="M20.5997 26.4332C20.5997 23.2114 23.2114 20.5997 26.4332 20.5997L144.766 20.5997C147.988 20.5997 150.6 23.2114 150.6 26.4332L150.6 63.7661C150.6 66.9879 147.988 69.5997 144.766 69.5997L26.4332 69.5997C23.2114 69.5997 20.5997 66.9879 20.5997 63.7661Z" fill="#FF0000" fill-rule="evenodd"/></g></g><path d="M814 21.8335C814 18.6118 816.612 16 819.833 16L938.167 16C941.388 16 944 18.6118 944 21.8335L944 59.1665C944 62.3882 941.388 65 938.167 65L819.833 65C816.612 65 814 62.3882 814 59.1665Z" fill="url(#fill40)" fill-rule="evenodd"/><g filter="url(#fx8)" transform="translate(2 68)"><g><path d="M12.0631 25.5006C12.0631 18.1235 18.0435 12.1431 25.4206 12.1431L114.986 12.1431C122.363 12.1431 128.343 18.1235 128.343 25.5006L128.343 110.986C128.343 118.363 122.363 124.343 114.986 124.343L25.4206 124.343C18.0435 124.343 12.0631 118.363 12.0631 110.986Z" fill="#BFBFBF" fill-rule="evenodd"/></g></g><path d="M22 101.096C22 93.8631 27.8631 88 35.0955 88L122.904 88C130.137 88 136 93.8631 136 101.096L136 184.904C136 192.137 130.137 198 122.904 198L35.0955 198C27.8631 198 22 192.137 22 184.904Z" fill="#BFBFBF" fill-rule="evenodd"/><g filter="url(#fx9)" transform="translate(8 74)"><g><path d="M20.5997 33.6952C20.5997 26.4627 26.4627 20.5997 33.6952 20.5997L121.504 20.5997C128.737 20.5997 134.6 26.4627 134.6 33.6952L134.6 117.504C134.6 124.737 128.737 130.6 121.504 130.6L33.6952 130.6C26.4627 130.6 20.5997 124.737 20.5997 117.504Z" fill="#FF0000" fill-rule="evenodd"/></g></g><path d="M22 101.096C22 93.8631 27.8631 88 35.0955 88L122.904 88C130.137 88 136 93.8631 136 101.096L136 184.904C136 192.137 130.137 198 122.904 198L35.0955 198C27.8631 198 22 192.137 22 184.904Z" fill="url(#fill41)" fill-rule="evenodd"/><g filter="url(#fx10)" transform="translate(130 68)"><g><path d="M12.0631 25.5006C12.0631 18.1235 18.0435 12.1431 25.4206 12.1431L114.986 12.1431C122.363 12.1431 128.343 18.1235 128.343 25.5006L128.343 110.986C128.343 118.363 122.363 124.343 114.986 124.343L25.4206 124.343C18.0435 124.343 12.0631 118.363 12.0631 110.986Z" fill="#BFBFBF" fill-rule="evenodd"/></g></g><path d="M150 101.096C150 93.8631 155.863 88 163.096 88L250.904 88C258.137 88 264 93.8631 264 101.096L264 184.904C264 192.137 258.137 198 250.904 198L163.096 198C155.863 198 150 192.137 150 184.904Z" fill="#BFBFBF" fill-rule="evenodd"/><g filter="url(#fx11)" transform="translate(136 74)"><g><path d="M20.5997 33.6952C20.5997 26.4627 26.4627 20.5997 33.6952 20.5997L121.504 20.5997C128.737 20.5997 134.6 26.4627 134.6 33.6952L134.6 117.504C134.6 124.737 128.737 130.6 121.504 130.6L33.6952 130.6C26.4627 130.6 20.5997 124.737 20.5997 117.504Z" fill="#FF0000" fill-rule="evenodd"/></g></g><path d="M150 101.096C150 93.8631 155.863 88 163.096 88L250.904 88C258.137 88 264 93.8631 264 101.096L264 184.904C264 192.137 258.137 198 250.904 198L163.096 198C155.863 198 150 192.137 150 184.904Z" fill="url(#fill42)" fill-rule="evenodd"/><g filter="url(#fx12)" transform="translate(259 68)"><g><path d="M11.8831 25.5006C11.8831 18.1235 17.8635 12.1431 25.2406 12.1431L123.986 12.1431C131.363 12.1431 137.343 18.1235 137.343 25.5006L137.343 110.986C137.343 118.363 131.363 124.343 123.986 124.343L25.2406 124.343C17.8635 124.343 11.8831 118.363 11.8831 110.986Z" fill="#BFBFBF" fill-rule="evenodd"/></g></g><path d="M279 101.096C279 93.8631 284.863 88 292.096 88L388.904 88C396.137 88 402 93.8631 402 101.096L402 184.904C402 192.137 396.137 198 388.904 198L292.096 198C284.863 198 279 192.137 279 184.904Z" fill="#BFBFBF" fill-rule="evenodd"/><g filter="url(#fx13)" transform="translate(265 74)"><g><path d="M20.5997 33.6952C20.5997 26.4627 26.4627 20.5997 33.6952 20.5997L130.504 20.5997C137.737 20.5997 143.6 26.4627 143.6 33.6952L143.6 117.504C143.6 124.737 137.737 130.6 130.504 130.6L33.6952 130.6C26.4627 130.6 20.5997 124.737 20.5997 117.504Z" fill="#FF0000" fill-rule="evenodd"/></g></g><path d="M279 101.096C279 93.8631 284.863 88 292.096 88L388.904 88C396.137 88 402 93.8631 402 101.096L402 184.904C402 192.137 396.137 198 388.904 198L292.096 198C284.863 198 279 192.137 279 184.904Z" fill="url(#fill43)" fill-rule="evenodd"/><g filter="url(#fx14)" transform="translate(399 68)"><g><path d="M12.0432 25.5005C12.0432 18.1234 18.0235 12.1431 25.4005 12.1431L115.986 12.1431C123.363 12.1431 129.343 18.1234 129.343 25.5005L129.343 110.986C129.343 118.363 123.363 124.343 115.986 124.343L25.4005 124.343C18.0235 124.343 12.0432 118.363 12.0432 110.986Z" fill="#BFBFBF" fill-rule="evenodd"/></g></g><path d="M419 101.095C419 93.863 424.863 88 432.095 88L520.905 88C528.137 88 534 93.863 534 101.095L534 184.905C534 192.137 528.137 198 520.905 198L432.095 198C424.863 198 419 192.137 419 184.905Z" fill="#BFBFBF" fill-rule="evenodd"/><g filter="url(#fx15)" transform="translate(405 74)"><g><path d="M20.5997 33.6951C20.5997 26.4627 26.4627 20.5997 33.6951 20.5997L122.504 20.5997C129.737 20.5997 135.6 26.4627 135.6 33.6951L135.6 117.504C135.6 124.737 129.737 130.6 122.504 130.6L33.6951 130.6C26.4627 130.6 20.5997 124.737 20.5997 117.504Z" fill="#FF0000" fill-rule="evenodd"/></g></g><path d="M419 101.095C419 93.863 424.863 88 432.095 88L520.905 88C528.137 88 534 93.863 534 101.095L534 184.905C534 192.137 528.137 198 520.905 198L432.095 198C424.863 198 419 192.137 419 184.905Z" fill="url(#fill44)" fill-rule="evenodd"/><g filter="url(#fx16)" transform="translate(525 67)"><g><path d="M12.4832 39.6723C12.4832 24.2474 24.9874 11.7431 40.4123 11.7431L385.414 11.7431C400.839 11.7431 413.343 24.2474 413.343 39.6723L413.343 218.414C413.343 233.839 400.839 246.343 385.414 246.343L40.4123 246.343C24.9874 246.343 12.4832 233.839 12.4832 218.414Z" fill="#BFBFBF" fill-rule="evenodd"/></g></g><path d="M551 116.381C551 101.259 563.259 89 578.381 89L916.619 89C931.741 89 944 101.259 944 116.381L944 291.618C944 306.741 931.741 319 916.619 319L578.381 319C563.259 319 551 306.741 551 291.618Z" fill="#BFBFBF" fill-rule="evenodd"/><g filter="url(#fx17)" transform="translate(537 74)"><g><path d="M20.5997 48.1002C20.5997 32.9121 32.9121 20.5997 48.1002 20.5997L386.099 20.5997C401.287 20.5997 413.6 32.9121 413.6 48.1002L413.6 224.099C413.6 239.287 401.287 251.6 386.099 251.6L48.1002 251.6C32.9121 251.6 20.5997 239.287 20.5997 224.099Z" fill="#FF0000" fill-rule="evenodd"/></g></g><path d="M551 115.501C551 100.312 563.312 88 578.501 88L916.499 88C931.688 88 944 100.312 944 115.501L944 291.499C944 306.688 931.688 319 916.499 319L578.501 319C563.312 319 551 306.688 551 291.499Z" fill="url(#fill45)" fill-rule="evenodd"/><g filter="url(#fx18)" transform="translate(-5 190)"><g><path d="M12.1231 48.2651C12.1231 28.4812 28.1612 12.4431 47.945 12.4431L497.521 12.4431C517.305 12.4431 533.343 28.4812 533.343 48.2651L533.343 277.521C533.343 297.305 517.305 313.343 497.521 313.343L47.945 313.343C28.1612 313.343 12.1231 297.305 12.1231 277.521Z" fill="#BFBFBF" fill-rule="evenodd"/></g></g><path d="M23 249.12C23 229.724 38.7235 214 58.1195 214L498.88 214C518.276 214 534 229.724 534 249.12L534 473.88C534 493.276 518.276 509 498.88 509L58.1195 509C38.7235 509 23 493.276 23 473.88Z" fill="#BFBFBF" fill-rule="evenodd"/><g filter="url(#fx19)" transform="translate(9 200)"><g><path d="M20.5997 55.7192C20.5997 36.3232 36.3232 20.5997 55.7192 20.5997L496.48 20.5997C515.876 20.5997 531.6 36.3232 531.6 55.7192L531.6 280.48C531.6 299.876 515.876 315.6 496.48 315.6L55.7192 315.6C36.3232 315.6 20.5997 299.876 20.5997 280.48Z" fill="#FF0000" fill-rule="evenodd"/></g></g><path d="M23 249.12C23 229.724 38.7235 214 58.1195 214L498.88 214C518.276 214 534 229.724 534 249.12L534 473.88C534 493.276 518.276 509 498.88 509L58.1195 509C38.7235 509 23 493.276 23 473.88Z" fill="url(#fill46)" fill-rule="evenodd"/><g filter="url(#fx20)" transform="translate(934 -8)"><g><path d="M12.3632 48.5909C12.3632 28.5387 28.6187 12.2831 48.671 12.2831L281.035 12.2831C301.088 12.2831 317.343 28.5387 317.343 48.5909L317.343 285.035C317.343 305.088 301.088 321.343 281.035 321.343L48.671 321.343C28.6187 321.343 12.3632 305.088 12.3632 285.035Z" fill="#BFBFBF" fill-rule="evenodd"/></g></g><path d="M958 51.5959C958 31.9368 973.937 16 993.596 16L1221.4 16C1241.06 16 1257 31.9368 1257 51.5959L1257 283.404C1257 303.063 1241.06 319 1221.4 319L993.596 319C973.937 319 958 303.063 958 283.404Z" fill="#BFBFBF" fill-rule="evenodd"/><g filter="url(#fx21)" transform="translate(944 2)"><g><path d="M20.5997 35.1668C20.5997 27.1216 27.1216 20.5997 35.1668 20.5997L305.033 20.5997C313.078 20.5997 319.6 27.1216 319.6 35.1668L319.6 309.033C319.6 317.078 313.078 323.6 305.033 323.6L35.1668 323.6C27.1216 323.6 20.5997 317.078 20.5997 309.033Z" fill="#FF0000" fill-rule="evenodd"/></g></g><path d="M958 30.5671C958 22.5219 964.522 16 972.567 16L1242.43 16C1250.48 16 1257 22.5219 1257 30.5671L1257 304.433C1257 312.478 1250.48 319 1242.43 319L972.567 319C964.522 319 958 312.478 958 304.433Z" fill="url(#fill47)" fill-rule="evenodd"/><g filter="url(#fx22)" transform="translate(524 308)"><g><path d="M11.7031 33.4993C11.7031 21.4948 21.4347 11.7632 33.4392 11.7632L430.607 11.7632C442.612 11.7632 452.343 21.4948 452.343 33.4993L452.343 172.607C452.343 184.612 442.612 194.343 430.607 194.343L33.4392 194.343C21.4347 194.343 11.7031 184.612 11.7031 172.607Z" fill="#BFBFBF" fill-rule="evenodd"/></g></g><path d="M550 350.31C550 338.541 559.541 329 571.31 329L960.69 329C972.459 329 982 338.541 982 350.31L982 486.69C982 498.459 972.459 508 960.69 508L571.31 508C559.541 508 550 498.459 550 486.69Z" fill="#BFBFBF" fill-rule="evenodd"/><g filter="url(#fx23)" transform="translate(536 314)"><g><path d="M20.5997 42.0286C20.5997 30.1938 30.1938 20.5997 42.0286 20.5997L431.171 20.5997C443.006 20.5997 452.6 30.1938 452.6 42.0286L452.6 179.171C452.6 191.006 443.006 200.6 431.171 200.6L42.0286 200.6C30.1938 200.6 20.5997 191.006 20.5997 179.171Z" fill="#FF0000" fill-rule="evenodd"/></g></g><path d="M550 349.429C550 337.594 559.594 328 571.429 328L960.571 328C972.406 328 982 337.594 982 349.429L982 486.571C982 498.406 972.406 508 960.571 508L571.429 508C559.594 508 550 498.406 550 486.571Z" fill="url(#fill48)" fill-rule="evenodd"/><g filter="url(#fx24)" transform="translate(1 495)"><g><path d="M11.7231 33.5823C11.7231 21.4435 21.5635 11.6031 33.7023 11.6031L174.364 11.6031C186.503 11.6031 196.343 21.4435 196.343 33.5823L196.343 180.364C196.343 192.503 186.503 202.343 174.364 202.343L33.7023 202.343C21.5635 202.343 11.7231 192.503 11.7231 180.364Z" fill="#BFBFBF" fill-rule="evenodd"/></g></g><path d="M22 537.548C22 525.647 31.6474 516 43.5481 516L181.452 516C193.353 516 203 525.647 203 537.548L203 681.452C203 693.353 193.353 703 181.452 703L43.5481 703C31.6474 703 22 693.353 22 681.452Z" fill="#BFBFBF" fill-rule="evenodd"/><g filter="url(#fx25)" transform="translate(8 502)"><g><path d="M20.5997 42.1477C20.5997 30.2471 30.2471 20.5997 42.1477 20.5997L180.052 20.5997C191.952 20.5997 201.6 30.2471 201.6 42.1477L201.6 185.052C201.6 196.952 191.952 206.6 180.052 206.6L42.1477 206.6C30.2471 206.6 20.5997 196.952 20.5997 185.052Z" fill="#FF0000" fill-rule="evenodd"/></g></g><path d="M22 537.548C22 525.647 31.6474 516 43.5481 516L181.452 516C193.353 516 203 525.647 203 537.548L203 680.452C203 692.353 193.353 702 181.452 702L43.5481 702C31.6474 702 22 692.353 22 680.452Z" fill="url(#fill49)" fill-rule="evenodd"/><g filter="url(#fx26)" transform="translate(199 495)"><g><path d="M11.7031 34.3107C11.7031 21.7697 21.8696 11.6031 34.4106 11.6031L225.636 11.6031C238.177 11.6031 248.343 21.7697 248.343 34.3107L248.343 179.636C248.343 192.177 238.177 202.343 225.636 202.343L34.4106 202.343C21.8696 202.343 11.7031 192.177 11.7031 179.636Z" fill="#BFBFBF" fill-rule="evenodd"/></g></g><path d="M221 538.262C221 525.967 230.967 516 243.262 516L430.738 516C443.033 516 453 525.967 453 538.262L453 680.738C453 693.033 443.033 703 430.738 703L243.262 703C230.967 703 221 693.033 221 680.738Z" fill="#BFBFBF" fill-rule="evenodd"/><g filter="url(#fx27)" transform="translate(207 502)"><g><path d="M20.5997 42.743C20.5997 30.5136 30.5135 20.5997 42.7429 20.5997L230.456 20.5997C242.686 20.5997 252.6 30.5136 252.6 42.743L252.6 184.456C252.6 196.686 242.686 206.6 230.456 206.6L42.7429 206.6C30.5135 206.6 20.5997 196.686 20.5997 184.456Z" fill="#FF0000" fill-rule="evenodd"/></g></g><path d="M221 538.143C221 525.914 230.914 516 243.143 516L430.857 516C443.086 516 453 525.914 453 538.143L453 679.857C453 692.086 443.086 702 430.857 702L243.143 702C230.914 702 221 692.086 221 679.857Z" fill="url(#fill50)" fill-rule="evenodd"/><g filter="url(#fx28)" transform="translate(450 495)"><g><path d="M11.7032 33.7235C11.7032 21.5178 21.5978 11.6231 33.8036 11.6231L175.243 11.6231C187.448 11.6231 197.343 21.5178 197.343 33.7235L197.343 179.243C197.343 191.448 187.448 201.343 175.243 201.343L33.8036 201.343C21.5978 201.343 11.7032 191.448 11.7032 179.243Z" fill="#BFBFBF" fill-rule="evenodd"/></g></g><path d="M471 537.667C471 525.701 480.701 516 492.667 516L631.333 516C643.299 516 653 525.701 653 537.667L653 680.333C653 692.299 643.299 702 631.333 702L492.667 702C480.701 702 471 692.299 471 680.333Z" fill="#BFBFBF" fill-rule="evenodd"/><g filter="url(#fx29)" transform="translate(457 502)"><g><path d="M20.5997 42.2667C20.5997 30.3003 30.3003 20.5997 42.2667 20.5997L180.933 20.5997C192.899 20.5997 202.6 30.3003 202.6 42.2667L202.6 184.933C202.6 196.899 192.899 206.6 180.933 206.6L42.2667 206.6C30.3003 206.6 20.5997 196.899 20.5997 184.933Z" fill="#FF0000" fill-rule="evenodd"/></g></g><path d="M471 537.667C471 525.701 480.701 516 492.667 516L631.333 516C643.299 516 653 525.701 653 537.667L653 680.333C653 692.299 643.299 702 631.333 702L492.667 702C480.701 702 471 692.299 471 680.333Z" fill="url(#fill51)" fill-rule="evenodd"/><g filter="url(#fx30)" transform="translate(646 499)"><g><path d="M12.1031 33.8035C12.1031 21.5978 21.9978 11.7032 34.2035 11.7032L308.243 11.7032C320.448 11.7032 330.343 21.5978 330.343 33.8035L330.343 175.243C330.343 187.448 320.448 197.343 308.243 197.343L34.2035 197.343C21.9978 197.343 12.1031 187.448 12.1031 175.243Z" fill="#BFBFBF" fill-rule="evenodd"/></g></g><path d="M670 541.667C670 529.701 679.701 520 691.667 520L960.333 520C972.299 520 982 529.701 982 541.667L982 680.333C982 692.299 972.299 702 960.333 702L691.667 702C679.701 702 670 692.299 670 680.333Z" fill="#BFBFBF" fill-rule="evenodd"/><g filter="url(#fx31)" transform="translate(656 505)"><g><path d="M20.5997 42.3858C20.5997 30.3536 30.3536 20.5997 42.3858 20.5997L310.814 20.5997C322.846 20.5997 332.6 30.3536 332.6 42.3858L332.6 181.814C332.6 193.846 322.846 203.6 310.814 203.6L42.3858 203.6C30.3536 203.6 20.5997 193.846 20.5997 181.814Z" fill="#FF0000" fill-rule="evenodd"/></g></g><path d="M670 540.786C670 528.754 679.754 519 691.786 519L960.214 519C972.246 519 982 528.754 982 540.786L982 680.214C982 692.246 972.246 702 960.214 702L691.786 702C679.754 702 670 692.246 670 680.214Z" fill="url(#fill52)" fill-rule="evenodd"/><g filter="url(#fx32)" transform="translate(979 304)"><g><path d="M12.2432 42.8479C12.2432 25.7466 26.1066 11.8831 43.208 11.8831L241.378 11.8831C258.48 11.8831 272.343 25.7466 272.343 42.8479L272.343 361.378C272.343 378.48 258.48 392.343 241.378 392.343L43.208 392.343C26.1066 392.343 12.2432 378.48 12.2432 361.378Z" fill="#BFBFBF" fill-rule="evenodd"/></g></g><path d="M1002 359.358C1002 342.592 1015.59 329 1032.36 329L1226.64 329C1243.41 329 1257 342.592 1257 359.358L1257 671.642C1257 688.408 1243.41 702 1226.64 702L1032.36 702C1015.59 702 1002 688.408 1002 671.642Z" fill="#BFBFBF" fill-rule="evenodd"/><g filter="url(#fx33)" transform="translate(988 314)"><g><path d="M20.5997 50.9573C20.5997 34.1913 34.1913 20.5997 50.9573 20.5997L245.242 20.5997C262.008 20.5997 275.6 34.1913 275.6 50.9573L275.6 363.242C275.6 380.008 262.008 393.6 245.242 393.6L50.9573 393.6C34.1913 393.6 20.5997 380.008 20.5997 363.242Z" fill="#FF0000" fill-rule="evenodd"/></g></g><path d="M1002 358.358C1002 341.592 1015.59 328 1032.36 328L1226.64 328C1243.41 328 1257 341.592 1257 358.358L1257 670.642C1257 687.408 1243.41 701 1226.64 701L1032.36 701C1015.59 701 1002 687.408 1002 670.642Z" fill="url(#fill53)" fill-rule="evenodd"/></g></svg>