<svg width="1280" height="720" xmlns="http://www.w3.org/2000/svg" xmlns:xlink="http://www.w3.org/1999/xlink" overflow="hidden"><defs><filter id="fx0" x="-10%" y="-10%" width="120%" height="120%" filterUnits="userSpaceOnUse" primitiveUnits="userSpaceOnUse"><feComponentTransfer color-interpolation-filters="sRGB"><feFuncR type="discrete" tableValues="1 1"/><feFuncG type="discrete" tableValues="1 1"/><feFuncB type="discrete" tableValues="1 1"/><feFuncA type="linear" slope="0.4" intercept="0"/></feComponentTransfer><feGaussianBlur stdDeviation="2.66667 2.66667"/></filter><filter id="fx1" x="-10%" y="-10%" width="120%" height="120%" filterUnits="userSpaceOnUse" primitiveUnits="userSpaceOnUse"><feComponentTransfer color-interpolation-filters="sRGB"><feFuncR type="discrete" tableValues="0 0"/><feFuncG type="discrete" tableValues="0 0"/><feFuncB type="discrete" tableValues="0 0"/><feFuncA type="linear" slope="0.34902" intercept="0"/></feComponentTransfer><feGaussianBlur stdDeviation="4.44781 4.45028"/></filter><filter id="fx2" x="-10%" y="-10%" width="120%" height="120%" filterUnits="userSpaceOnUse" primitiveUnits="userSpaceOnUse"><feComponentTransfer color-interpolation-filters="sRGB"><feFuncR type="discrete" tableValues="1 1"/><feFuncG type="discrete" tableValues="1 1"/><feFuncB type="discrete" tableValues="1 1"/><feFuncA type="linear" slope="1" intercept="0"/></feComponentTransfer><feGaussianBlur stdDeviation="3.55556 3.55556"/></filter><filter id="fx3" x="-10%" y="-10%" width="120%" height="120%" filterUnits="userSpaceOnUse" primitiveUnits="userSpaceOnUse"><feComponentTransfer color-interpolation-filters="sRGB"><feFuncR type="discrete" tableValues="0 0"/><feFuncG type="discrete" tableValues="0 0"/><feFuncB type="discrete" tableValues="0 0"/><feFuncA type="linear" slope="0.4" intercept="0"/></feComponentTransfer><feGaussianBlur stdDeviation="6.66667 6.66667"/></filter><filter id="fx4" x="-10%" y="-10%" width="120%" height="120%" filterUnits="userSpaceOnUse" primitiveUnits="userSpaceOnUse"><feComponentTransfer color-interpolation-filters="sRGB"><feFuncR type="discrete" tableValues="1 1"/><feFuncG type="discrete" tableValues="1 1"/><feFuncB type="discrete" tableValues="1 1"/><feFuncA type="linear" slope="1" intercept="0"/></feComponentTransfer><feGaussianBlur stdDeviation="3.55556 3.55556"/></filter><filter id="fx5" x="-10%" y="-10%" width="120%" height="120%" filterUnits="userSpaceOnUse" primitiveUnits="userSpaceOnUse"><feComponentTransfer color-interpolation-filters="sRGB"><feFuncR type="discrete" tableValues="0 0"/><feFuncG type="discrete" tableValues="0 0"/><feFuncB type="discrete" tableValues="0 0"/><feFuncA type="linear" slope="0.4" intercept="0"/></feComponentTransfer><feGaussianBlur stdDeviation="6.66667 6.66667"/></filter><filter id="fx6" x="-10%" y="-10%" width="120%" height="120%" filterUnits="userSpaceOnUse" primitiveUnits="userSpaceOnUse"><feComponentTransfer color-interpolation-filters="sRGB"><feFuncR type="discrete" tableValues="1 1"/><feFuncG type="discrete" tableValues="1 1"/><feFuncB type="discrete" tableValues="1 1"/><feFuncA type="linear" slope="1" intercept="0"/></feComponentTransfer><feGaussianBlur stdDeviation="3.55556 3.55556"/></filter><filter id="fx7" x="-10%" y="-10%" width="120%" height="120%" filterUnits="userSpaceOnUse" primitiveUnits="userSpaceOnUse"><feComponentTransfer color-interpolation-filters="sRGB"><feFuncR type="discrete" tableValues="0 0"/><feFuncG type="discrete" tableValues="0 0"/><feFuncB type="discrete" tableValues="0 0"/><feFuncA type="linear" slope="0.4" intercept="0"/></feComponentTransfer><feGaussianBlur stdDeviation="6.66667 6.66667"/></filter><filter id="fx8" x="-10%" y="-10%" width="120%" height="120%" filterUnits="userSpaceOnUse" primitiveUnits="userSpaceOnUse"><feComponentTransfer color-interpolation-filters="sRGB"><feFuncR type="discrete" tableValues="1 1"/><feFuncG type="discrete" tableValues="1 1"/><feFuncB type="discrete" tableValues="1 1"/><feFuncA type="linear" slope="1" intercept="0"/></feComponentTransfer><feGaussianBlur stdDeviation="3.55556 3.55556"/></filter><filter id="fx9" x="-10%" y="-10%" width="120%" height="120%" filterUnits="userSpaceOnUse" primitiveUnits="userSpaceOnUse"><feComponentTransfer color-interpolation-filters="sRGB"><feFuncR type="discrete" tableValues="0 0"/><feFuncG type="discrete" tableValues="0 0"/><feFuncB type="discrete" tableValues="0 0"/><feFuncA type="linear" slope="0.4" intercept="0"/></feComponentTransfer><feGaussianBlur stdDeviation="6.66667 6.66667"/></filter><filter id="fx10" x="-10%" y="-10%" width="120%" height="120%" filterUnits="userSpaceOnUse" primitiveUnits="userSpaceOnUse"><feComponentTransfer color-interpolation-filters="sRGB"><feFuncR type="discrete" tableValues="1 1"/><feFuncG type="discrete" tableValues="1 1"/><feFuncB type="discrete" tableValues="1 1"/><feFuncA type="linear" slope="1" intercept="0"/></feComponentTransfer><feGaussianBlur stdDeviation="3.55556 3.55556"/></filter><filter id="fx11" x="-10%" y="-10%" width="120%" height="120%" filterUnits="userSpaceOnUse" primitiveUnits="userSpaceOnUse"><feComponentTransfer color-interpolation-filters="sRGB"><feFuncR type="discrete" tableValues="0 0"/><feFuncG type="discrete" tableValues="0 0"/><feFuncB type="discrete" tableValues="0 0"/><feFuncA type="linear" slope="0.4" intercept="0"/></feComponentTransfer><feGaussianBlur stdDeviation="6.66667 6.66667"/></filter><filter id="fx12" x="-10%" y="-10%" width="120%" height="120%" filterUnits="userSpaceOnUse" primitiveUnits="userSpaceOnUse"><feComponentTransfer color-interpolation-filters="sRGB"><feFuncR type="discrete" tableValues="1 1"/><feFuncG type="discrete" tableValues="1 1"/><feFuncB type="discrete" tableValues="1 1"/><feFuncA type="linear" slope="1" intercept="0"/></feComponentTransfer><feGaussianBlur stdDeviation="3.55556 3.55556"/></filter><filter id="fx13" x="-10%" y="-10%" width="120%" height="120%" filterUnits="userSpaceOnUse" primitiveUnits="userSpaceOnUse"><feComponentTransfer color-interpolation-filters="sRGB"><feFuncR type="discrete" tableValues="0 0"/><feFuncG type="discrete" tableValues="0 0"/><feFuncB type="discrete" tableValues="0 0"/><feFuncA type="linear" slope="0.4" intercept="0"/></feComponentTransfer><feGaussianBlur stdDeviation="6.66667 6.66667"/></filter><filter id="fx14" x="-10%" y="-10%" width="120%" height="120%" filterUnits="userSpaceOnUse" primitiveUnits="userSpaceOnUse"><feComponentTransfer color-interpolation-filters="sRGB"><feFuncR type="discrete" tableValues="1 1"/><feFuncG type="discrete" tableValues="1 1"/><feFuncB type="discrete" tableValues="1 1"/><feFuncA type="linear" slope="1" intercept="0"/></feComponentTransfer><feGaussianBlur stdDeviation="3.55556 3.55556"/></filter><filter id="fx15" x="-10%" y="-10%" width="120%" height="120%" filterUnits="userSpaceOnUse" primitiveUnits="userSpaceOnUse"><feComponentTransfer color-interpolation-filters="sRGB"><feFuncR type="discrete" tableValues="0 0"/><feFuncG type="discrete" tableValues="0 0"/><feFuncB type="discrete" tableValues="0 0"/><feFuncA type="linear" slope="0.4" intercept="0"/></feComponentTransfer><feGaussianBlur stdDeviation="6.66667 6.66667"/></filter><filter id="fx16" x="-10%" y="-10%" width="120%" height="120%" filterUnits="userSpaceOnUse" primitiveUnits="userSpaceOnUse"><feComponentTransfer color-interpolation-filters="sRGB"><feFuncR type="discrete" tableValues="1 1"/><feFuncG type="discrete" tableValues="1 1"/><feFuncB type="discrete" tableValues="1 1"/><feFuncA type="linear" slope="1" intercept="0"/></feComponentTransfer><feGaussianBlur stdDeviation="3.55556 3.55556"/></filter><filter id="fx17" x="-10%" y="-10%" width="120%" height="120%" filterUnits="userSpaceOnUse" primitiveUnits="userSpaceOnUse"><feComponentTransfer color-interpolation-filters="sRGB"><feFuncR type="discrete" tableValues="0 0"/><feFuncG type="discrete" tableValues="0 0"/><feFuncB type="discrete" tableValues="0 0"/><feFuncA type="linear" slope="0.4" intercept="0"/></feComponentTransfer><feGaussianBlur stdDeviation="6.66667 6.66667"/></filter><filter id="fx18" x="-10%" y="-10%" width="120%" height="120%" filterUnits="userSpaceOnUse" primitiveUnits="userSpaceOnUse"><feComponentTransfer color-interpolation-filters="sRGB"><feFuncR type="discrete" tableValues="1 1"/><feFuncG type="discrete" tableValues="1 1"/><feFuncB type="discrete" tableValues="1 1"/><feFuncA type="linear" slope="1" intercept="0"/></feComponentTransfer><feGaussianBlur stdDeviation="3.55556 3.55556"/></filter><filter id="fx19" x="-10%" y="-10%" width="120%" height="120%" filterUnits="userSpaceOnUse" primitiveUnits="userSpaceOnUse"><feComponentTransfer color-interpolation-filters="sRGB"><feFuncR type="discrete" tableValues="0 0"/><feFuncG type="discrete" tableValues="0 0"/><feFuncB type="discrete" tableValues="0 0"/><feFuncA type="linear" slope="0.4" intercept="0"/></feComponentTransfer><feGaussianBlur stdDeviation="6.66667 6.66667"/></filter><filter id="fx20" x="-10%" y="-10%" width="120%" height="120%" filterUnits="userSpaceOnUse" primitiveUnits="userSpaceOnUse"><feComponentTransfer color-interpolation-filters="sRGB"><feFuncR type="discrete" tableValues="1 1"/><feFuncG type="discrete" tableValues="1 1"/><feFuncB type="discrete" tableValues="1 1"/><feFuncA type="linear" slope="1" intercept="0"/></feComponentTransfer><feGaussianBlur stdDeviation="3.55556 3.55556"/></filter><filter id="fx21" x="-10%" y="-10%" width="120%" height="120%" filterUnits="userSpaceOnUse" primitiveUnits="userSpaceOnUse"><feComponentTransfer color-interpolation-filters="sRGB"><feFuncR type="discrete" tableValues="0 0"/><feFuncG type="discrete" tableValues="0 0"/><feFuncB type="discrete" tableValues="0 0"/><feFuncA type="linear" slope="0.4" intercept="0"/></feComponentTransfer><feGaussianBlur stdDeviation="6.66667 6.66667"/></filter><filter id="fx22" x="-10%" y="-10%" width="120%" height="120%" filterUnits="userSpaceOnUse" primitiveUnits="userSpaceOnUse"><feComponentTransfer color-interpolation-filters="sRGB"><feFuncR type="discrete" tableValues="1 1"/><feFuncG type="discrete" tableValues="1 1"/><feFuncB type="discrete" tableValues="1 1"/><feFuncA type="linear" slope="1" intercept="0"/></feComponentTransfer><feGaussianBlur stdDeviation="3.55556 3.55556"/></filter><filter id="fx23" x="-10%" y="-10%" width="120%" height="120%" filterUnits="userSpaceOnUse" primitiveUnits="userSpaceOnUse"><feComponentTransfer color-interpolation-filters="sRGB"><feFuncR type="discrete" tableValues="0 0"/><feFuncG type="discrete" tableValues="0 0"/><feFuncB type="discrete" tableValues="0 0"/><feFuncA type="linear" slope="0.4" intercept="0"/></feComponentTransfer><feGaussianBlur stdDeviation="6.66667 6.66667"/></filter><filter id="fx24" x="-10%" y="-10%" width="120%" height="120%" filterUnits="userSpaceOnUse" primitiveUnits="userSpaceOnUse"><feComponentTransfer color-interpolation-filters="sRGB"><feFuncR type="discrete" tableValues="1 1"/><feFuncG type="discrete" tableValues="1 1"/><feFuncB type="discrete" tableValues="1 1"/><feFuncA type="linear" slope="1" intercept="0"/></feComponentTransfer><feGaussianBlur stdDeviation="3.55556 3.55556"/></filter><filter id="fx25" x="-10%" y="-10%" width="120%" height="120%" filterUnits="userSpaceOnUse" primitiveUnits="userSpaceOnUse"><feComponentTransfer color-interpolation-filters="sRGB"><feFuncR type="discrete" tableValues="0 0"/><feFuncG type="discrete" tableValues="0 0"/><feFuncB type="discrete" tableValues="0 0"/><feFuncA type="linear" slope="0.4" intercept="0"/></feComponentTransfer><feGaussianBlur stdDeviation="6.66667 6.66667"/></filter><filter id="fx26" x="-10%" y="-10%" width="120%" height="120%" filterUnits="userSpaceOnUse" primitiveUnits="userSpaceOnUse"><feComponentTransfer color-interpolation-filters="sRGB"><feFuncR type="discrete" tableValues="1 1"/><feFuncG type="discrete" tableValues="1 1"/><feFuncB type="discrete" tableValues="1 1"/><feFuncA type="linear" slope="1" intercept="0"/></feComponentTransfer><feGaussianBlur stdDeviation="3.55556 3.55556"/></filter><filter id="fx27" x="-10%" y="-10%" width="120%" height="120%" filterUnits="userSpaceOnUse" primitiveUnits="userSpaceOnUse"><feComponentTransfer color-interpolation-filters="sRGB"><feFuncR type="discrete" tableValues="0 0"/><feFuncG type="discrete" tableValues="0 0"/><feFuncB type="discrete" tableValues="0 0"/><feFuncA type="linear" slope="0.4" intercept="0"/></feComponentTransfer><feGaussianBlur stdDeviation="6.66667 6.66667"/></filter><clipPath id="clip28"><rect x="0" y="0" width="1280" height="720"/></clipPath><clipPath id="clip29"><rect x="-11" y="-11" width="1305" height="744"/></clipPath><clipPath id="clip30"><rect x="0" y="0" width="1290" height="730"/></clipPath><clipPath id="clip31"><rect x="0" y="0" width="661" height="381"/></clipPath><radialGradient cx="0" cy="0" r="6215010" gradientUnits="userSpaceOnUse" spreadMethod="pad" id="fill32" gradientTransform="matrix(0.000104987 0 0 0.000104987 22 18)"><stop offset="0" stop-color="#FFFFFF"/><stop offset="0.32" stop-color="#FFFFFF"/><stop offset="0.92" stop-color="#F2F2F2"/><stop offset="1" stop-color="#F2F2F2"/></radialGradient><radialGradient cx="-0.0625" cy="-0.0625" r="1508924" fx="0" fy="0" gradientUnits="userSpaceOnUse" spreadMethod="pad" id="fill33" gradientTransform="matrix(0.000104987 0 0 0.000104987 22 87)"><stop offset="0" stop-color="#FFFFFF"/><stop offset="0.32" stop-color="#FFFFFF"/><stop offset="0.92" stop-color="#F2F2F2"/><stop offset="1" stop-color="#F2F2F2"/></radialGradient><radialGradient cx="-0.0625" cy="-0.0625" r="1508924" fx="0" fy="0" gradientUnits="userSpaceOnUse" spreadMethod="pad" id="fill34" gradientTransform="matrix(0.000104987 0 0 0.000104987 151 87)"><stop offset="0" stop-color="#FFFFFF"/><stop offset="0.32" stop-color="#FFFFFF"/><stop offset="0.92" stop-color="#F2F2F2"/><stop offset="1" stop-color="#F2F2F2"/></radialGradient><radialGradient cx="0" cy="0" r="1794875" fy="-2.31921e-11" gradientUnits="userSpaceOnUse" spreadMethod="pad" id="fill35" gradientTransform="matrix(0.000104987 0 0 0.000104987 279 87)"><stop offset="0" stop-color="#FFFFFF"/><stop offset="0.32" stop-color="#FFFFFF"/><stop offset="0.92" stop-color="#F2F2F2"/><stop offset="1" stop-color="#F2F2F2"/></radialGradient><radialGradient cx="0" cy="0" r="1703378" fy="-2.13731e-11" gradientUnits="userSpaceOnUse" spreadMethod="pad" id="fill36" gradientTransform="matrix(0.000104987 0 0 0.000104987 446 87)"><stop offset="0" stop-color="#FFFFFF"/><stop offset="0.32" stop-color="#FFFFFF"/><stop offset="0.92" stop-color="#F2F2F2"/><stop offset="1" stop-color="#F2F2F2"/></radialGradient><radialGradient cx="0" cy="0" r="1261119" fy="-9.32233e-12" gradientUnits="userSpaceOnUse" spreadMethod="pad" id="fill37" gradientTransform="matrix(0.000104987 0 0 0.000104987 685 18)"><stop offset="0" stop-color="#FFFFFF"/><stop offset="0.32" stop-color="#FFFFFF"/><stop offset="0.92" stop-color="#F2F2F2"/><stop offset="1" stop-color="#F2F2F2"/></radialGradient><radialGradient cx="0" cy="0" r="1261119" fy="-9.32233e-12" gradientUnits="userSpaceOnUse" spreadMethod="pad" id="fill38" gradientTransform="matrix(0.000104987 0 0 0.000104987 820 18)"><stop offset="0" stop-color="#FFFFFF"/><stop offset="0.32" stop-color="#FFFFFF"/><stop offset="0.92" stop-color="#F2F2F2"/><stop offset="1" stop-color="#F2F2F2"/></radialGradient><radialGradient cx="-0.25" cy="-0.25" r="5662771" fx="0" fy="0" gradientUnits="userSpaceOnUse" spreadMethod="pad" id="fill39" gradientTransform="matrix(0.000104987 0 0 0.000104987 23 226)"><stop offset="0" stop-color="#FFFFFF"/><stop offset="0.41" stop-color="#FFFFFF"/><stop offset="0.92" stop-color="#F2F2F2"/><stop offset="1" stop-color="#F2F2F2"/></radialGradient><radialGradient cx="0" cy="0" r="4486144" fy="-5.12349e-11" gradientUnits="userSpaceOnUse" spreadMethod="pad" id="fill40" gradientTransform="matrix(0.000104987 0 0 0.000104987 605 89)"><stop offset="0" stop-color="#FFFFFF"/><stop offset="0.32" stop-color="#FFFFFF"/><stop offset="0.92" stop-color="#F2F2F2"/><stop offset="1" stop-color="#F2F2F2"/></radialGradient><radialGradient cx="0.25" cy="0.25" r="4698259" fx="0" fy="0" gradientUnits="userSpaceOnUse" spreadMethod="pad" id="fill41" gradientTransform="matrix(0.000104987 0 0 0.000104987 968 18)"><stop offset="0" stop-color="#FFFFFF"/><stop offset="0.41" stop-color="#FFFFFF"/><stop offset="0.92" stop-color="#F2F2F2"/><stop offset="1" stop-color="#F2F2F2"/></radialGradient><radialGradient cx="0.25" cy="0.25" r="5939149" fx="0" fy="0" gradientUnits="userSpaceOnUse" spreadMethod="pad" id="fill42" gradientTransform="matrix(0.000104987 0 0 0.000104987 23 435)"><stop offset="0" stop-color="#FFFFFF"/><stop offset="0.45" stop-color="#FFFFFF"/><stop offset="0.96" stop-color="#F2F2F2"/><stop offset="1" stop-color="#F2F2F2"/></radialGradient><radialGradient cx="0" cy="0" r="4147752" fy="-5.21444e-11" gradientUnits="userSpaceOnUse" spreadMethod="pad" id="fill43" gradientTransform="matrix(0.000104987 0 0 0.000104987 605 436)"><stop offset="0" stop-color="#FFFFFF"/><stop offset="0.41" stop-color="#FFFFFF"/><stop offset="0.92" stop-color="#F2F2F2"/><stop offset="1" stop-color="#F2F2F2"/></radialGradient><radialGradient cx="-0.125" cy="-0.125" r="3735404" fx="0" fy="0" gradientUnits="userSpaceOnUse" spreadMethod="pad" id="fill44" gradientTransform="matrix(0.000104987 0 0 0.000104987 968 439)"><stop offset="0" stop-color="#FFFFFF"/><stop offset="0.41" stop-color="#FFFFFF"/><stop offset="0.92" stop-color="#F2F2F2"/><stop offset="1" stop-color="#F2F2F2"/></radialGradient></defs><g clip-path="url(#clip28)"><rect x="0" y="0" width="1280" height="720" fill="#FFFFFF"/><g clip-path="url(#clip29)" filter="url(#fx0)" transform="translate(-8 -8)"><g clip-path="url(#clip30)"><path d="M-24.1997 26.2026C-24.1997 4.55179-6.64821-12.9997 15.0026-12.9997L1242.2-12.9997C1263.85-12.9997 1281.4 4.55179 1281.4 26.2026L1281.4 682.198C1281.4 703.849 1263.85 721.4 1242.2 721.4L15.0026 721.4C-6.64821 721.4-24.1997 703.849-24.1997 682.198Z" fill="#D9D9D9" fill-rule="evenodd"/></g></g><path d="M0 38.4336C-1.01851e-14 17.2073 17.2073-1.01851e-14 38.4336-1.01851e-14L1241.57 0C1262.79-1.01851e-14 1280 17.2073 1280 38.4336L1280 681.566C1280 702.793 1262.79 720 1241.57 720L38.4336 720C17.2073 720-5.09253e-15 702.793-5.09253e-15 681.566Z" fill="#D9D9D9" fill-rule="evenodd"/><g filter="url(#fx1)" transform="matrix(1.99849 0 0 1.99738 -14 -14)"><g clip-path="url(#clip31)"><path d="M14.0817 33.3316C14.0817 22.7045 22.6919 14.0896 33.3131 14.0896L635.335 14.0896C645.956 14.0896 654.566 22.7045 654.566 33.3316L654.566 355.321C654.566 365.948 645.956 374.563 635.335 374.563L33.3131 374.563C22.6919 374.563 14.0817 365.948 14.0817 355.321Z" fill="#F2F2F2" fill-rule="evenodd"/></g></g><path d="M0 38.4336C-1.01851e-14 17.2073 17.2073-1.01851e-14 38.4336-1.01851e-14L1241.57 0C1262.79-1.01851e-14 1280 17.2073 1280 38.4336L1280 681.566C1280 702.793 1262.79 720 1241.57 720L38.4336 720C17.2073 720-5.09253e-15 702.793-5.09253e-15 681.566Z" fill="#F2F2F2" fill-rule="evenodd"/><g filter="url(#fx2)" transform="translate(-9 0)"><g><path d="M12.3431 18.9218C12.3431 15.2333 15.3332 12.2431 19.0217 12.2431L668.665 12.2431C672.353 12.2431 675.343 15.2333 675.343 18.9218L675.343 61.6645C675.343 65.353 672.353 68.3431 668.665 68.3431L19.0217 68.3431C15.3332 68.3431 12.3431 65.353 12.3431 61.6645Z" fill="#BFBFBF" fill-rule="evenodd"/></g></g><path d="M22 25.5477C22 21.9315 24.9315 19 28.5476 19L665.452 19C669.069 19 672 21.9315 672 25.5477L672 67.4523C672 71.0685 669.069 74 665.452 74L28.5476 74C24.9315 74 22 71.0685 22 67.4523Z" fill="#BFBFBF" fill-rule="evenodd"/><g filter="url(#fx3)" transform="translate(8 4)"><g><path d="M20.5997 27.3855C20.5997 23.6378 23.6378 20.5997 27.3854 20.5997L663.814 20.5997C667.562 20.5997 670.6 23.6378 670.6 27.3855L670.6 70.8138C670.6 74.5615 667.562 77.5997 663.814 77.5997L27.3854 77.5997C23.6378 77.5997 20.5997 74.5615 20.5997 70.8138Z" fill="#FF0000" fill-rule="evenodd"/></g></g><path d="M22 24.7858C22 21.0381 25.0381 18 28.7858 18L665.214 18C668.962 18 672 21.0381 672 24.7858L672 68.2142C672 71.9619 668.962 75 665.214 75L28.7858 75C25.0381 75 22 71.9619 22 68.2142Z" fill="url(#fill32)" fill-rule="evenodd"/><g filter="url(#fx4)" transform="translate(2 68)"><g><path d="M12.0631 25.5006C12.0631 18.1235 18.0435 12.1431 25.4206 12.1431L114.986 12.1431C122.363 12.1431 128.343 18.1235 128.343 25.5006L128.343 110.986C128.343 118.363 122.363 124.343 114.986 124.343L25.4206 124.343C18.0435 124.343 12.0631 118.363 12.0631 110.986Z" fill="#BFBFBF" fill-rule="evenodd"/></g></g><path d="M22 101.096C22 93.8631 27.8631 88 35.0955 88L122.904 88C130.137 88 136 93.8631 136 101.096L136 184.904C136 192.137 130.137 198 122.904 198L35.0955 198C27.8631 198 22 192.137 22 184.904Z" fill="#BFBFBF" fill-rule="evenodd"/><g filter="url(#fx5)" transform="translate(8 73)"><g><path d="M20.5997 33.6952C20.5997 26.4627 26.4627 20.5997 33.6952 20.5997L121.504 20.5997C128.737 20.5997 134.6 26.4627 134.6 33.6952L134.6 117.504C134.6 124.737 128.737 130.6 121.504 130.6L33.6952 130.6C26.4627 130.6 20.5997 124.737 20.5997 117.504Z" fill="#FF0000" fill-rule="evenodd"/></g></g><path d="M22 100.096C22 92.8631 27.8631 87 35.0955 87L122.904 87C130.137 87 136 92.8631 136 100.096L136 183.904C136 191.137 130.137 197 122.904 197L35.0955 197C27.8631 197 22 191.137 22 183.904Z" fill="url(#fill33)" fill-rule="evenodd"/><g filter="url(#fx6)" transform="translate(131 68)"><g><path d="M12.0631 25.5006C12.0631 18.1235 18.0435 12.1431 25.4206 12.1431L114.986 12.1431C122.363 12.1431 128.343 18.1235 128.343 25.5006L128.343 110.986C128.343 118.363 122.363 124.343 114.986 124.343L25.4206 124.343C18.0435 124.343 12.0631 118.363 12.0631 110.986Z" fill="#BFBFBF" fill-rule="evenodd"/></g></g><path d="M151 101.096C151 93.8631 156.863 88 164.096 88L251.904 88C259.137 88 265 93.8631 265 101.096L265 184.904C265 192.137 259.137 198 251.904 198L164.096 198C156.863 198 151 192.137 151 184.904Z" fill="#BFBFBF" fill-rule="evenodd"/><g filter="url(#fx7)" transform="translate(137 73)"><g><path d="M20.5997 33.6952C20.5997 26.4627 26.4627 20.5997 33.6952 20.5997L121.504 20.5997C128.737 20.5997 134.6 26.4627 134.6 33.6952L134.6 117.504C134.6 124.737 128.737 130.6 121.504 130.6L33.6952 130.6C26.4627 130.6 20.5997 124.737 20.5997 117.504Z" fill="#FF0000" fill-rule="evenodd"/></g></g><path d="M151 100.096C151 92.8631 156.863 87 164.096 87L251.904 87C259.137 87 265 92.8631 265 100.096L265 183.904C265 191.137 259.137 197 251.904 197L164.096 197C156.863 197 151 191.137 151 183.904Z" fill="url(#fill34)" fill-rule="evenodd"/><g filter="url(#fx8)" transform="translate(258 68)"><g><path d="M12.2831 25.5006C12.2831 18.1235 18.2635 12.1431 25.6406 12.1431L154.986 12.1431C162.363 12.1431 168.343 18.1235 168.343 25.5006L168.343 110.986C168.343 118.363 162.363 124.343 154.986 124.343L25.6406 124.343C18.2635 124.343 12.2831 118.363 12.2831 110.986Z" fill="#BFBFBF" fill-rule="evenodd"/></g></g><path d="M279 101.096C279 93.8631 284.863 88 292.096 88L418.904 88C426.137 88 432 93.8631 432 101.096L432 184.904C432 192.137 426.137 198 418.904 198L292.096 198C284.863 198 279 192.137 279 184.904Z" fill="#BFBFBF" fill-rule="evenodd"/><g filter="url(#fx9)" transform="translate(265 73)"><g><path d="M20.5997 33.6952C20.5997 26.4627 26.4627 20.5997 33.6952 20.5997L160.504 20.5997C167.737 20.5997 173.6 26.4627 173.6 33.6952L173.6 117.504C173.6 124.737 167.737 130.6 160.504 130.6L33.6952 130.6C26.4627 130.6 20.5997 124.737 20.5997 117.504Z" fill="#FF0000" fill-rule="evenodd"/></g></g><path d="M279 100.096C279 92.8631 284.863 87 292.096 87L418.904 87C426.137 87 432 92.8631 432 100.096L432 183.904C432 191.137 426.137 197 418.904 197L292.096 197C284.863 197 279 191.137 279 183.904Z" fill="url(#fill35)" fill-rule="evenodd"/><g filter="url(#fx10)" transform="translate(426 68)"><g><path d="M11.5231 25.5006C11.5231 18.1235 17.5035 12.1431 24.8806 12.1431L141.986 12.1431C149.363 12.1431 155.343 18.1235 155.343 25.5006L155.343 110.986C155.343 118.363 149.363 124.343 141.986 124.343L24.8806 124.343C17.5035 124.343 11.5231 118.363 11.5231 110.986Z" fill="#BFBFBF" fill-rule="evenodd"/></g></g><path d="M446 101.096C446 93.8631 451.863 88 459.096 88L573.904 88C581.137 88 587 93.8631 587 101.096L587 184.904C587 192.137 581.137 198 573.904 198L459.096 198C451.863 198 446 192.137 446 184.904Z" fill="#BFBFBF" fill-rule="evenodd"/><g filter="url(#fx11)" transform="translate(432 73)"><g><path d="M20.5997 33.6952C20.5997 26.4627 26.4627 20.5997 33.6952 20.5997L148.504 20.5997C155.737 20.5997 161.6 26.4627 161.6 33.6952L161.6 117.504C161.6 124.737 155.737 130.6 148.504 130.6L33.6952 130.6C26.4627 130.6 20.5997 124.737 20.5997 117.504Z" fill="#FF0000" fill-rule="evenodd"/></g></g><path d="M446 100.096C446 92.8631 451.863 87 459.096 87L573.904 87C581.137 87 587 92.8631 587 100.096L587 183.904C587 191.137 581.137 197 573.904 197L459.096 197C451.863 197 446 191.137 446 183.904Z" fill="url(#fill36)" fill-rule="evenodd"/><g filter="url(#fx12)" transform="translate(665 0)"><g><path d="M11.8831 18.2119C11.8831 14.9928 14.4927 12.3831 17.7118 12.3831L131.514 12.3831C134.734 12.3831 137.343 14.9928 137.343 18.2119L137.343 55.5144C137.343 58.7335 134.734 61.3431 131.514 61.3431L17.7118 61.3431C14.4927 61.3431 11.8831 58.7335 11.8831 55.5144Z" fill="#BFBFBF" fill-rule="evenodd"/></g></g><path d="M685 24.7144C685 21.5584 687.558 19 690.714 19L802.286 19C805.442 19 808 21.5584 808 24.7144L808 61.2856C808 64.4416 805.442 67 802.286 67L690.714 67C687.558 67 685 64.4416 685 61.2856Z" fill="#BFBFBF" fill-rule="evenodd"/><g filter="url(#fx13)" transform="translate(671 4)"><g><path d="M20.5997 26.4332C20.5997 23.2114 23.2114 20.5997 26.4332 20.5997L137.766 20.5997C140.988 20.5997 143.6 23.2114 143.6 26.4332L143.6 63.7662C143.6 66.9879 140.988 69.5997 137.766 69.5997L26.4332 69.5997C23.2114 69.5997 20.5997 66.9879 20.5997 63.7662Z" fill="#FF0000" fill-rule="evenodd"/></g></g><path d="M685 23.8335C685 20.6117 687.612 18 690.833 18L802.167 18C805.388 18 808 20.6117 808 23.8335L808 61.1665C808 64.3883 805.388 67 802.167 67L690.833 67C687.612 67 685 64.3883 685 61.1665Z" fill="url(#fill37)" fill-rule="evenodd"/><g filter="url(#fx14)" transform="translate(800 0)"><g><path d="M11.8831 18.2119C11.8831 14.9928 14.4927 12.3831 17.7118 12.3831L131.514 12.3831C134.734 12.3831 137.343 14.9928 137.343 18.2119L137.343 55.5144C137.343 58.7335 134.734 61.3431 131.514 61.3431L17.7118 61.3431C14.4927 61.3431 11.8831 58.7335 11.8831 55.5144Z" fill="#BFBFBF" fill-rule="evenodd"/></g></g><path d="M820 24.7144C820 21.5584 822.558 19 825.714 19L937.286 19C940.442 19 943 21.5584 943 24.7144L943 61.2856C943 64.4416 940.442 67 937.286 67L825.714 67C822.558 67 820 64.4416 820 61.2856Z" fill="#BFBFBF" fill-rule="evenodd"/><g filter="url(#fx15)" transform="translate(806 4)"><g><path d="M20.5997 26.4332C20.5997 23.2114 23.2114 20.5997 26.4332 20.5997L137.766 20.5997C140.988 20.5997 143.6 23.2114 143.6 26.4332L143.6 63.7662C143.6 66.9879 140.988 69.5997 137.766 69.5997L26.4332 69.5997C23.2114 69.5997 20.5997 66.9879 20.5997 63.7662Z" fill="#FF0000" fill-rule="evenodd"/></g></g><path d="M820 23.8335C820 20.6117 822.612 18 825.833 18L937.167 18C940.388 18 943 20.6117 943 23.8335L943 61.1665C943 64.3883 940.388 67 937.167 67L825.833 67C822.612 67 820 64.3883 820 61.1665Z" fill="url(#fill38)" fill-rule="evenodd"/><g filter="url(#fx16)" transform="translate(-6 205)"><g><path d="M12.0831 34.7166C12.0831 21.9072 22.4672 11.5231 35.2765 11.5231L563.15 11.5231C575.959 11.5231 586.343 21.9072 586.343 34.7166L586.343 183.15C586.343 195.959 575.959 206.343 563.15 206.343L35.2765 206.343C22.4672 206.343 12.0831 195.959 12.0831 183.15Z" fill="#BFBFBF" fill-rule="evenodd"/></g></g><path d="M23 248.739C23 236.18 33.1804 226 45.7386 226L563.261 226C575.82 226 586 236.18 586 248.739L586 394.261C586 406.82 575.82 417 563.261 417L45.7386 417C33.1804 417 23 406.82 23 394.261Z" fill="#BFBFBF" fill-rule="evenodd"/><g filter="url(#fx17)" transform="translate(9 212)"><g><path d="M20.5997 43.3383C20.5997 30.7801 30.7801 20.5997 43.3382 20.5997L560.861 20.5997C573.419 20.5997 583.6 30.7801 583.6 43.3383L583.6 188.861C583.6 201.419 573.419 211.6 560.861 211.6L43.3382 211.6C30.7801 211.6 20.5997 201.419 20.5997 188.861Z" fill="#FF0000" fill-rule="evenodd"/></g></g><path d="M23 248.739C23 236.18 33.1804 226 45.7386 226L563.261 226C575.82 226 586 236.18 586 248.739L586 394.261C586 406.82 575.82 417 563.261 417L45.7386 417C33.1804 417 23 406.82 23 394.261Z" fill="url(#fill39)" fill-rule="evenodd"/><g filter="url(#fx18)" transform="translate(581 65)"><g><path d="M11.5831 51.6127C11.5831 29.6154 29.4154 11.7831 51.4126 11.7831L316.514 11.7831C338.511 11.7831 356.343 29.6154 356.343 51.6127L356.343 306.514C356.343 328.511 338.511 346.343 316.514 346.343L51.4126 346.343C29.4154 346.343 11.5831 328.511 11.5831 306.514Z" fill="#BFBFBF" fill-rule="evenodd"/></g></g><path d="M605 128.049C605 106.483 622.483 89 644.049 89L903.951 89C925.517 89 943 106.483 943 128.049L943 377.951C943 399.517 925.517 417 903.951 417L644.049 417C622.483 417 605 399.517 605 377.951Z" fill="#BFBFBF" fill-rule="evenodd"/><g filter="url(#fx19)" transform="translate(591 75)"><g><path d="M20.5997 59.6482C20.5997 38.0823 38.0823 20.5997 59.6482 20.5997L319.551 20.5997C341.117 20.5997 358.6 38.0823 358.6 59.6482L358.6 309.551C358.6 331.117 341.117 348.6 319.551 348.6L59.6482 348.6C38.0823 348.6 20.5997 331.117 20.5997 309.551Z" fill="#FF0000" fill-rule="evenodd"/></g></g><path d="M605 128.049C605 106.483 622.483 89 644.049 89L903.951 89C925.517 89 943 106.483 943 128.049L943 377.951C943 399.517 925.517 417 903.951 417L644.049 417C622.483 417 605 399.517 605 377.951Z" fill="url(#fill40)" fill-rule="evenodd"/><g filter="url(#fx20)" transform="translate(945 -7)"><g><path d="M11.5432 47.5983C11.5432 28.1495 27.3095 12.3831 46.7583 12.3831L272.128 12.3831C291.577 12.3831 307.343 28.1495 307.343 47.5983L307.343 383.128C307.343 402.577 291.577 418.343 272.128 418.343L46.7583 418.343C27.3095 418.343 11.5432 402.577 11.5432 383.128Z" fill="#BFBFBF" fill-rule="evenodd"/></g></g><path d="M968 53.5247C968 34.4572 983.457 19 1002.52 19L1223.48 19C1242.54 19 1258 34.4572 1258 53.5247L1258 382.475C1258 401.543 1242.54 417 1223.48 417L1002.52 417C983.457 417 968 401.543 968 382.475Z" fill="#BFBFBF" fill-rule="evenodd"/><g filter="url(#fx21)" transform="translate(954 4)"><g><path d="M20.5997 34.7283C20.5997 26.9253 26.9253 20.5997 34.7283 20.5997L296.471 20.5997C304.274 20.5997 310.6 26.9253 310.6 34.7283L310.6 405.471C310.6 413.274 304.274 419.6 296.471 419.6L34.7283 419.6C26.9253 419.6 20.5997 413.274 20.5997 405.471Z" fill="#FF0000" fill-rule="evenodd"/></g></g><path d="M968 32.1286C968 24.3256 974.326 18 982.129 18L1243.87 18C1251.67 18 1258 24.3256 1258 32.1286L1258 402.871C1258 410.674 1251.67 417 1243.87 417L982.129 417C974.326 417 968 410.674 968 402.871Z" fill="url(#fill41)" fill-rule="evenodd"/><g filter="url(#fx22)" transform="translate(-6 412)"><g><path d="M12.0831 44.5265C12.0831 26.5533 26.6533 11.9832 44.6264 11.9832L553.8 11.9832C571.773 11.9832 586.343 26.5533 586.343 44.5265L586.343 252.8C586.343 270.773 571.773 285.343 553.8 285.343L44.6264 285.343C26.6533 285.343 12.0831 270.773 12.0831 252.8Z" fill="#BFBFBF" fill-rule="evenodd"/></g></g><path d="M23 466.905C23 449.284 37.2844 435 54.9052 435L554.095 435C571.716 435 586 449.284 586 466.905L586 671.095C586 688.716 571.716 703 554.095 703L54.9052 703C37.2844 703 23 688.716 23 671.095Z" fill="#BFBFBF" fill-rule="evenodd"/><g filter="url(#fx23)" transform="translate(9 421)"><g><path d="M20.5997 52.5049C20.5997 34.8841 34.8841 20.5997 52.5048 20.5997L551.694 20.5997C569.315 20.5997 583.6 34.8841 583.6 52.5049L583.6 256.694C583.6 274.315 569.315 288.6 551.694 288.6L52.5048 288.6C34.8841 288.6 20.5997 274.315 20.5997 256.694Z" fill="#FF0000" fill-rule="evenodd"/></g></g><path d="M23 466.905C23 449.284 37.2844 435 54.9052 435L554.095 435C571.716 435 586 449.284 586 466.905L586 671.095C586 688.716 571.716 703 554.095 703L54.9052 703C37.2844 703 23 688.716 23 671.095Z" fill="url(#fill42)" fill-rule="evenodd"/><g filter="url(#fx24)" transform="translate(580 413)"><g><path d="M12.4631 44.4254C12.4631 26.5191 26.9791 12.0031 44.8854 12.0031L330.921 12.0031C348.827 12.0031 363.343 26.5191 363.343 44.4254L363.343 251.921C363.343 269.827 348.827 284.343 330.921 284.343L44.8854 284.343C26.9791 284.343 12.4631 269.827 12.4631 251.921Z" fill="#BFBFBF" fill-rule="evenodd"/></g></g><path d="M605 467.787C605 450.231 619.231 436 636.786 436L917.214 436C934.769 436 949 450.231 949 467.787L949 671.213C949 688.769 934.769 703 917.214 703L636.786 703C619.231 703 605 688.769 605 671.213Z" fill="#BFBFBF" fill-rule="evenodd"/><g filter="url(#fx25)" transform="translate(591 422)"><g><path d="M20.5997 52.3862C20.5997 34.831 34.831 20.5997 52.3862 20.5997L332.813 20.5997C350.368 20.5997 364.6 34.831 364.6 52.3862L364.6 255.813C364.6 273.368 350.368 287.6 332.813 287.6L52.3862 287.6C34.831 287.6 20.5997 273.368 20.5997 255.813Z" fill="#FF0000" fill-rule="evenodd"/></g></g><path d="M605 467.787C605 450.231 619.231 436 636.786 436L917.214 436C934.769 436 949 450.231 949 467.787L949 671.213C949 688.769 934.769 703 917.214 703L636.786 703C619.231 703 605 688.769 605 671.213Z" fill="url(#fill43)" fill-rule="evenodd"/><g filter="url(#fx26)" transform="translate(945 416)"><g><path d="M11.5432 44.1208C11.5432 26.4158 25.8958 12.0631 43.6008 12.0631L275.286 12.0631C292.99 12.0631 307.343 26.4158 307.343 44.1208L307.343 249.286C307.343 266.99 292.99 281.343 275.286 281.343L43.6008 281.343C25.8958 281.343 11.5432 266.99 11.5432 249.286Z" fill="#BFBFBF" fill-rule="evenodd"/></g></g><path d="M968 470.429C968 453.071 982.071 439 999.429 439L1226.57 439C1243.93 439 1258 453.071 1258 470.429L1258 671.571C1258 688.929 1243.93 703 1226.57 703L999.429 703C982.071 703 968 688.929 968 671.571Z" fill="#BFBFBF" fill-rule="evenodd"/><g filter="url(#fx27)" transform="translate(954 425)"><g><path d="M20.5997 52.0287C20.5997 34.6709 34.6709 20.5997 52.0287 20.5997L279.171 20.5997C296.528 20.5997 310.6 34.6709 310.6 52.0287L310.6 253.171C310.6 270.528 296.528 284.6 279.171 284.6L52.0287 284.6C34.6709 284.6 20.5997 270.528 20.5997 253.171Z" fill="#FF0000" fill-rule="evenodd"/></g></g><path d="M968 470.429C968 453.071 982.071 439 999.429 439L1226.57 439C1243.93 439 1258 453.071 1258 470.429L1258 671.571C1258 688.929 1243.93 703 1226.57 703L999.429 703C982.071 703 968 688.929 968 671.571Z" fill="url(#fill44)" fill-rule="evenodd"/></g></svg>